<svg width="1903" height="1080" viewBox="0 0 1903 1080" fill="none" xmlns="http://www.w3.org/2000/svg">
<g clip-path="url(#clip0_2234_8802)">
<g opacity="0.2" clip-path="url(#clip1_2234_8802)">
<path d="M13.0975 896C-65.4557 896 -129 959.544 -129 1038.1C-129 1116.46 -65.4557 1180.19 13.0975 1180.19C91.4557 1180.19 155.195 1116.65 155.195 1038.1C155 959.544 91.4557 896 13.0975 896ZM13.0975 1171.03C-60.3878 1171.03 -119.839 1111.58 -119.839 1038.1C-119.839 964.612 -60.3878 905.161 13.0975 905.161C86.5827 905.161 146.034 964.612 146.034 1038.1C146.034 1111.39 86.3878 1171.03 13.0975 1171.03Z" fill="white"/>
<path d="M13.0988 926.603C-48.3014 926.603 -98.2012 976.502 -98.2012 1037.9C-98.2012 1099.3 -48.3014 1149.2 13.0988 1149.2C74.4989 1149.2 124.399 1099.5 124.399 1038.1C124.399 976.502 74.4989 926.603 13.0988 926.603ZM13.0988 1132.24C-38.9452 1132.24 -81.243 1089.95 -81.243 1037.9C-81.243 985.859 -38.9452 943.561 13.0988 943.561C65.1427 943.561 107.441 985.859 107.441 1037.9C107.441 1089.95 65.1427 1132.24 13.0988 1132.24Z" fill="white"/>
<path d="M13.098 975.527C-21.403 975.527 -49.4717 1003.6 -49.4717 1038.1C-49.4717 1072.6 -21.598 1100.67 13.098 1100.67C47.599 1100.67 75.6677 1072.6 75.6677 1038.1C75.4727 1003.6 47.599 975.527 13.098 975.527ZM13.098 1071.62C-5.41951 1071.62 -20.4284 1056.61 -20.4284 1038.1C-20.4284 1019.58 -5.41951 1004.57 13.098 1004.57C31.6155 1004.57 46.6244 1019.58 46.6244 1038.1C46.6244 1056.61 31.6155 1071.62 13.098 1071.62Z" fill="white"/>
</g>
<g opacity="0.8" clip-path="url(#clip2_2234_8802)">
<path d="M1751.34 789.264C1751.34 790.784 1750.19 791.923 1748.67 791.923C1747.14 791.923 1746 790.784 1746 789.264C1746 787.745 1747.14 786.605 1748.67 786.605C1750.19 786.605 1751.34 787.872 1751.34 789.264Z" fill="white"/>
<path d="M1774.08 789.264C1774.08 790.784 1772.93 791.923 1771.41 791.923C1769.88 791.923 1768.74 790.784 1768.74 789.264C1768.74 787.745 1769.88 786.605 1771.41 786.605C1772.8 786.605 1774.08 787.872 1774.08 789.264Z" fill="white"/>
<path d="M1796.69 789.264C1796.69 790.784 1795.54 791.923 1794.02 791.923C1792.5 791.923 1791.35 790.784 1791.35 789.264C1791.35 787.745 1792.5 786.605 1794.02 786.605C1795.54 786.605 1796.69 787.872 1796.69 789.264Z" fill="white"/>
<path d="M1819.43 789.264C1819.43 790.784 1818.28 791.923 1816.76 791.923C1815.24 791.923 1814.09 790.784 1814.09 789.264C1814.09 787.745 1815.24 786.605 1816.76 786.605C1818.28 786.605 1819.43 787.872 1819.43 789.264Z" fill="white"/>
<path d="M1842.17 789.264C1842.17 790.784 1841.02 791.923 1839.5 791.923C1837.98 791.923 1836.83 790.784 1836.83 789.264C1836.83 787.745 1837.98 786.605 1839.5 786.605C1840.9 786.605 1842.17 787.872 1842.17 789.264Z" fill="white"/>
<path d="M1864.91 789.264C1864.91 790.784 1863.76 791.923 1862.24 791.923C1860.72 791.923 1859.57 790.784 1859.57 789.264C1859.57 787.745 1860.72 786.605 1862.24 786.605C1863.76 786.605 1864.91 787.872 1864.91 789.264Z" fill="white"/>
<path d="M1887.52 789.264C1887.52 790.784 1886.38 791.923 1884.85 791.923C1883.33 791.923 1882.18 790.784 1882.18 789.264C1882.18 787.745 1883.33 786.605 1884.85 786.605C1886.38 786.605 1887.52 787.872 1887.52 789.264Z" fill="white"/>
<path d="M1751.34 808.131C1751.34 809.65 1750.19 810.79 1748.67 810.79C1747.14 810.79 1746 809.65 1746 808.131C1746 806.611 1747.14 805.472 1748.67 805.472C1750.19 805.472 1751.34 806.611 1751.34 808.131Z" fill="white"/>
<path d="M1774.08 808.131C1774.08 809.65 1772.93 810.79 1771.41 810.79C1769.88 810.79 1768.74 809.65 1768.74 808.131C1768.74 806.611 1769.88 805.472 1771.41 805.472C1772.8 805.472 1774.08 806.611 1774.08 808.131Z" fill="white"/>
<path d="M1796.69 808.131C1796.69 809.65 1795.54 810.79 1794.02 810.79C1792.5 810.79 1791.35 809.65 1791.35 808.131C1791.35 806.611 1792.5 805.472 1794.02 805.472C1795.54 805.472 1796.69 806.611 1796.69 808.131Z" fill="white"/>
<path d="M1819.43 808.131C1819.43 809.65 1818.28 810.79 1816.76 810.79C1815.24 810.79 1814.09 809.65 1814.09 808.131C1814.09 806.611 1815.24 805.472 1816.76 805.472C1818.28 805.472 1819.43 806.611 1819.43 808.131Z" fill="white"/>
<path d="M1842.17 808.131C1842.17 809.65 1841.02 810.79 1839.5 810.79C1837.98 810.79 1836.83 809.65 1836.83 808.131C1836.83 806.611 1837.98 805.472 1839.5 805.472C1840.9 805.472 1842.17 806.611 1842.17 808.131Z" fill="white"/>
<path d="M1864.91 808.131C1864.91 809.65 1863.76 810.79 1862.24 810.79C1860.72 810.79 1859.57 809.65 1859.57 808.131C1859.57 806.611 1860.72 805.472 1862.24 805.472C1863.76 805.472 1864.91 806.611 1864.91 808.131Z" fill="white"/>
<path d="M1887.52 808.131C1887.52 809.65 1886.38 810.79 1884.85 810.79C1883.33 810.79 1882.18 809.65 1882.18 808.131C1882.18 806.611 1883.33 805.472 1884.85 805.472C1886.38 805.472 1887.52 806.611 1887.52 808.131Z" fill="white"/>
<path d="M1751.34 751.659C1751.34 753.178 1750.19 754.318 1748.67 754.318C1747.14 754.318 1746 753.178 1746 751.659C1746 750.14 1747.14 749 1748.67 749C1750.19 749 1751.34 750.14 1751.34 751.659Z" fill="white"/>
<path d="M1774.08 751.659C1774.08 753.178 1772.93 754.318 1771.41 754.318C1769.88 754.318 1768.74 753.178 1768.74 751.659C1768.74 750.14 1769.88 749 1771.41 749C1772.8 749 1774.08 750.14 1774.08 751.659Z" fill="white"/>
<path d="M1796.69 751.659C1796.69 753.178 1795.54 754.318 1794.02 754.318C1792.5 754.318 1791.35 753.178 1791.35 751.659C1791.35 750.14 1792.62 749 1794.02 749C1795.54 749 1796.69 750.14 1796.69 751.659Z" fill="white"/>
<path d="M1819.43 751.659C1819.43 753.178 1818.28 754.318 1816.76 754.318C1815.24 754.318 1814.09 753.178 1814.09 751.659C1814.09 750.14 1815.36 749 1816.76 749C1818.16 749 1819.43 750.14 1819.43 751.659Z" fill="white"/>
<path d="M1842.17 751.659C1842.17 753.178 1841.02 754.318 1839.5 754.318C1837.98 754.318 1836.83 753.178 1836.83 751.659C1836.83 750.14 1837.98 749 1839.5 749C1840.9 749 1842.17 750.14 1842.17 751.659Z" fill="white"/>
<path d="M1864.91 751.659C1864.91 753.178 1863.76 754.318 1862.24 754.318C1860.72 754.318 1859.57 753.178 1859.57 751.659C1859.57 750.14 1860.72 749 1862.24 749C1863.76 749 1864.91 750.14 1864.91 751.659Z" fill="white"/>
<path d="M1887.52 751.659C1887.52 753.178 1886.38 754.318 1884.85 754.318C1883.33 754.318 1882.18 753.178 1882.18 751.659C1882.18 750.14 1883.33 749 1884.85 749C1886.38 749 1887.52 750.14 1887.52 751.659Z" fill="white"/>
<path d="M1751.34 770.525C1751.34 772.045 1750.19 773.184 1748.67 773.184C1747.14 773.184 1746 771.918 1746 770.525C1746 769.006 1747.14 767.866 1748.67 767.866C1750.19 767.866 1751.34 769.006 1751.34 770.525Z" fill="white"/>
<path d="M1774.08 770.525C1774.08 772.045 1772.93 773.184 1771.41 773.184C1769.88 773.184 1768.74 772.045 1768.74 770.525C1768.74 769.006 1769.88 767.866 1771.41 767.866C1772.8 767.866 1774.08 769.006 1774.08 770.525Z" fill="white"/>
<path d="M1796.69 770.525C1796.69 772.045 1795.54 773.184 1794.02 773.184C1792.5 773.184 1791.35 772.045 1791.35 770.525C1791.35 769.006 1792.5 767.866 1794.02 767.866C1795.54 767.866 1796.69 769.006 1796.69 770.525Z" fill="white"/>
<path d="M1819.43 770.525C1819.43 772.045 1818.28 773.184 1816.76 773.184C1815.24 773.184 1814.09 772.045 1814.09 770.525C1814.09 769.006 1815.24 767.866 1816.76 767.866C1818.28 767.866 1819.43 769.006 1819.43 770.525Z" fill="white"/>
<path d="M1842.17 770.525C1842.17 772.045 1841.02 773.184 1839.5 773.184C1837.98 773.184 1836.83 772.045 1836.83 770.525C1836.83 769.006 1837.98 767.866 1839.5 767.866C1840.9 767.866 1842.17 769.006 1842.17 770.525Z" fill="white"/>
<path d="M1864.91 770.525C1864.91 772.045 1863.76 773.184 1862.24 773.184C1860.72 773.184 1859.57 772.045 1859.57 770.525C1859.57 769.006 1860.72 767.866 1862.24 767.866C1863.76 767.866 1864.91 769.006 1864.91 770.525Z" fill="white"/>
<path d="M1887.52 770.525C1887.52 772.045 1886.38 773.184 1884.85 773.184C1883.33 773.184 1882.18 772.045 1882.18 770.525C1882.18 769.006 1883.33 767.866 1884.85 767.866C1886.38 767.866 1887.52 769.006 1887.52 770.525Z" fill="white"/>
<path d="M1751.34 826.87C1751.34 828.389 1750.19 829.529 1748.67 829.529C1747.14 829.529 1746 828.389 1746 826.87C1746 825.35 1747.14 824.211 1748.67 824.211C1750.19 824.211 1751.34 825.477 1751.34 826.87Z" fill="white"/>
<path d="M1774.08 826.87C1774.08 828.389 1772.93 829.529 1771.41 829.529C1769.88 829.529 1768.74 828.389 1768.74 826.87C1768.74 825.35 1769.88 824.211 1771.41 824.211C1772.8 824.211 1774.08 825.477 1774.08 826.87Z" fill="white"/>
<path d="M1796.69 826.87C1796.69 828.389 1795.54 829.529 1794.02 829.529C1792.5 829.529 1791.35 828.389 1791.35 826.87C1791.35 825.35 1792.5 824.211 1794.02 824.211C1795.54 824.211 1796.69 825.477 1796.69 826.87Z" fill="white"/>
<path d="M1819.43 826.87C1819.43 828.389 1818.28 829.529 1816.76 829.529C1815.24 829.529 1814.09 828.389 1814.09 826.87C1814.09 825.35 1815.24 824.211 1816.76 824.211C1818.28 824.211 1819.43 825.477 1819.43 826.87Z" fill="white"/>
<path d="M1842.17 826.87C1842.17 828.389 1841.02 829.529 1839.5 829.529C1837.98 829.529 1836.83 828.389 1836.83 826.87C1836.83 825.35 1837.98 824.211 1839.5 824.211C1840.9 824.211 1842.17 825.477 1842.17 826.87Z" fill="white"/>
<path d="M1864.91 826.87C1864.91 828.389 1863.76 829.529 1862.24 829.529C1860.72 829.529 1859.57 828.389 1859.57 826.87C1859.57 825.35 1860.72 824.211 1862.24 824.211C1863.76 824.211 1864.91 825.477 1864.91 826.87Z" fill="white"/>
<path d="M1887.52 826.87C1887.52 828.389 1886.38 829.529 1884.85 829.529C1883.33 829.529 1882.18 828.389 1882.18 826.87C1882.18 825.35 1883.33 824.211 1884.85 824.211C1886.38 824.211 1887.52 825.477 1887.52 826.87Z" fill="white"/>
<path d="M1751.34 845.736C1751.34 847.256 1750.19 848.395 1748.67 848.395C1747.14 848.395 1746 847.256 1746 845.736C1746 844.217 1747.14 843.077 1748.67 843.077C1750.19 843.077 1751.34 844.217 1751.34 845.736Z" fill="white"/>
<path d="M1774.08 845.736C1774.08 847.256 1772.93 848.395 1771.41 848.395C1769.88 848.395 1768.74 847.256 1768.74 845.736C1768.74 844.217 1769.88 843.077 1771.41 843.077C1772.8 843.077 1774.08 844.217 1774.08 845.736Z" fill="white"/>
<path d="M1796.69 845.736C1796.69 847.256 1795.54 848.395 1794.02 848.395C1792.5 848.395 1791.35 847.256 1791.35 845.736C1791.35 844.217 1792.5 843.077 1794.02 843.077C1795.54 843.077 1796.69 844.217 1796.69 845.736Z" fill="white"/>
<path d="M1816.76 848.395C1818.23 848.395 1819.43 847.205 1819.43 845.736C1819.43 844.268 1818.23 843.077 1816.76 843.077C1815.29 843.077 1814.09 844.268 1814.09 845.736C1814.09 847.205 1815.29 848.395 1816.76 848.395Z" fill="white"/>
<path d="M1842.17 845.736C1842.17 847.256 1841.02 848.395 1839.5 848.395C1837.98 848.395 1836.83 847.256 1836.83 845.736C1836.83 844.217 1837.98 843.077 1839.5 843.077C1840.9 843.077 1842.17 844.217 1842.17 845.736Z" fill="white"/>
<path d="M1864.91 845.736C1864.91 847.256 1863.76 848.395 1862.24 848.395C1860.72 848.395 1859.57 847.256 1859.57 845.736C1859.57 844.217 1860.72 843.077 1862.24 843.077C1863.76 843.077 1864.91 844.217 1864.91 845.736Z" fill="white"/>
<path d="M1887.52 845.736C1887.52 847.256 1886.38 848.395 1884.85 848.395C1883.33 848.395 1882.18 847.256 1882.18 845.736C1882.18 844.217 1883.33 843.077 1884.85 843.077C1886.38 843.077 1887.52 844.217 1887.52 845.736Z" fill="white"/>
<path d="M1751.34 864.601C1751.34 866.121 1750.19 867.26 1748.67 867.26C1747.14 867.26 1746 866.121 1746 864.601C1746 863.082 1747.14 861.942 1748.67 861.942C1750.19 861.942 1751.34 863.082 1751.34 864.601Z" fill="white"/>
<path d="M1774.08 864.601C1774.08 866.121 1772.93 867.26 1771.41 867.26C1769.88 867.26 1768.74 866.121 1768.74 864.601C1768.74 863.082 1769.88 861.942 1771.41 861.942C1772.8 861.942 1774.08 863.082 1774.08 864.601Z" fill="white"/>
<path d="M1796.69 864.601C1796.69 866.121 1795.54 867.26 1794.02 867.26C1792.5 867.26 1791.35 866.121 1791.35 864.601C1791.35 863.082 1792.5 861.942 1794.02 861.942C1795.54 861.942 1796.69 863.082 1796.69 864.601Z" fill="white"/>
<path d="M1819.43 864.601C1819.43 866.121 1818.28 867.26 1816.76 867.26C1815.24 867.26 1814.09 866.121 1814.09 864.601C1814.09 863.082 1815.24 861.942 1816.76 861.942C1818.28 861.942 1819.43 863.082 1819.43 864.601Z" fill="white"/>
<path d="M1842.17 864.601C1842.17 866.121 1841.02 867.26 1839.5 867.26C1837.98 867.26 1836.83 866.121 1836.83 864.601C1836.83 863.082 1837.98 861.942 1839.5 861.942C1840.9 861.942 1842.17 863.082 1842.17 864.601Z" fill="white"/>
<path d="M1864.91 864.601C1864.91 866.121 1863.76 867.26 1862.24 867.26C1860.72 867.26 1859.57 866.121 1859.57 864.601C1859.57 863.082 1860.72 861.942 1862.24 861.942C1863.76 861.942 1864.91 863.082 1864.91 864.601Z" fill="white"/>
<path d="M1887.52 864.601C1887.52 866.121 1886.38 867.26 1884.85 867.26C1883.33 867.26 1882.18 866.121 1882.18 864.601C1882.18 863.082 1883.33 861.942 1884.85 861.942C1886.38 861.942 1887.52 863.082 1887.52 864.601Z" fill="white"/>
<path d="M1751.34 883.341C1751.34 884.86 1750.19 886 1748.67 886C1747.14 886 1746 884.86 1746 883.341C1746 881.821 1747.14 880.682 1748.67 880.682C1750.19 880.682 1751.34 881.948 1751.34 883.341Z" fill="white"/>
<path d="M1774.08 883.341C1774.08 884.86 1772.93 886 1771.41 886C1769.88 886 1768.74 884.86 1768.74 883.341C1768.74 881.821 1769.88 880.682 1771.41 880.682C1772.8 880.682 1774.08 881.948 1774.08 883.341Z" fill="white"/>
<path d="M1796.69 883.341C1796.69 884.86 1795.54 886 1794.02 886C1792.5 886 1791.35 884.86 1791.35 883.341C1791.35 881.821 1792.5 880.682 1794.02 880.682C1795.54 880.682 1796.69 881.948 1796.69 883.341Z" fill="white"/>
<path d="M1819.43 883.341C1819.43 884.86 1818.28 886 1816.76 886C1815.24 886 1814.09 884.86 1814.09 883.341C1814.09 881.821 1815.24 880.682 1816.76 880.682C1818.28 880.682 1819.43 881.948 1819.43 883.341Z" fill="white"/>
<path d="M1842.17 883.341C1842.17 884.86 1841.02 886 1839.5 886C1837.98 886 1836.83 884.86 1836.83 883.341C1836.83 881.821 1837.98 880.682 1839.5 880.682C1840.9 880.682 1842.17 881.948 1842.17 883.341Z" fill="white"/>
<path d="M1864.91 883.341C1864.91 884.86 1863.76 886 1862.24 886C1860.72 886 1859.57 884.86 1859.57 883.341C1859.57 881.821 1860.72 880.682 1862.24 880.682C1863.76 880.682 1864.91 881.948 1864.91 883.341Z" fill="white"/>
<path d="M1887.52 883.341C1887.52 884.86 1886.38 886 1884.85 886C1883.33 886 1882.18 884.86 1882.18 883.341C1882.18 881.821 1883.33 880.682 1884.85 880.682C1886.38 880.682 1887.52 881.948 1887.52 883.341Z" fill="white"/>
</g>
<g opacity="0.3">
<path d="M1744.81 75.2212L1754.47 84.8799L1728.78 110.563L1703.1 84.8799L1712.68 75.2943L1728.71 91.319L1744.81 75.2212Z" fill="white"/>
<path d="M1744.81 40.5386L1754.39 50.1241L1728.71 75.8075L1703.1 50.1973L1712.76 40.5386L1728.78 56.5632L1744.81 40.5386Z" fill="white"/>
<path d="M1744.73 5.78165L1754.39 15.4404L1728.78 41.0506L1703.1 15.3672L1712.68 5.78165L1728.71 21.8063L1744.73 5.78165Z" fill="white"/>
<path d="M1744.81 -28.9761L1754.46 -19.3174L1728.78 6.36601L1703.1 -19.3174L1712.76 -28.9761L1728.78 -12.9514L1744.81 -28.9761Z" fill="white"/>
</g>
<path opacity="0.3" d="M777 808.553C763.071 822.482 740.377 822.482 726.447 808.553C712.518 794.623 712.518 771.929 726.447 758L777 808.553Z" fill="white"/>
<g opacity="0.3">
<path d="M831.486 529.89C842.205 529.89 850.937 521.165 850.937 510.453C850.937 499.742 842.205 491.017 831.486 491.017L831.486 529.89Z" fill="white"/>
<path d="M801.141 529.89C811.861 529.89 820.592 521.165 820.592 510.453C820.592 499.742 811.861 491.017 801.141 491.017L801.141 529.89Z" fill="white"/>
<path d="M770.796 529.89C781.515 529.89 790.247 521.165 790.247 510.453C790.247 499.742 781.515 491.017 770.796 491.017V529.89Z" fill="white"/>
</g>
<g opacity="0.3">
<path d="M129.301 144.921L129.301 133L161 133L161 164.699L149.169 164.699L149.169 144.921L129.301 144.921Z" fill="white"/>
<path d="M107.898 166.325L107.898 154.494L139.597 154.494L139.597 186.103L127.676 186.103L127.676 166.325L107.898 166.325Z" fill="white"/>
<path d="M86.4946 187.819L86.4946 175.898L118.103 175.898L118.103 207.597L106.272 207.597L106.272 187.819L86.4946 187.819Z" fill="white"/>
<path d="M65.0005 209.222L65.0004 197.301L96.6992 197.301L96.6992 229L84.7783 229L84.7783 209.222L65.0005 209.222Z" fill="white"/>
</g>
</g>
<defs>
<clipPath id="clip0_2234_8802">
<rect width="1920" height="1080" fill="white" transform="translate(-17)"/>
</clipPath>
<clipPath id="clip1_2234_8802">
<rect width="284" height="284" fill="white" transform="translate(-129 896)"/>
</clipPath>
<clipPath id="clip2_2234_8802">
<rect width="187" height="137" fill="white" transform="translate(1746 749)"/>
</clipPath>
</defs>
</svg>
